<?xml version="1.0" encoding="UTF-8" standalone="no"?>
<!-- Created with Inkscape (http://www.inkscape.org/) -->

<svg
   width="512"
   height="512"
   viewBox="0 0 512 512"
   version="1.1"
   id="svg1"
   xml:space="preserve"
   xmlns="http://www.w3.org/2000/svg"
   xmlns:svg="http://www.w3.org/2000/svg"><defs
     id="defs1" /><g
     id="layer1"><g
       id="g1"
       transform="matrix(10.34293,0,0,10.34293,7.9952275,14.538213)"><path
         fill="#2395ec"
         d="m 47.527,19.847 c -0.13,-0.102 -1.345,-1.007 -3.908,-1.007 -0.677,0.003 -1.352,0.06 -2.019,0.171 -0.496,-3.354 -3.219,-4.93 -3.345,-5.003 l -0.688,-0.392 -0.453,0.644 c -0.567,0.866 -1.068,1.76 -1.311,2.763 -0.459,1.915 -0.18,3.713 0.806,5.25 C 35.417,22.928 33.386,22.986 33,23 H 1.582 c -0.826,0.001 -1.496,0.66 -1.501,1.474 -0.037,2.733 0.353,5.553 1.306,8.119 1.089,2.818 2.71,4.894 4.818,6.164 2.362,1.427 6.2,2.243 10.551,2.243 1.965,0.006 3.927,-0.169 5.859,-0.524 2.686,-0.487 5.271,-1.413 7.647,-2.74 1.958,-1.119 3.72,-2.542 5.219,-4.215 2.505,-2.798 3.997,-5.913 5.107,-8.682 0.149,0 0.298,0 0.442,0 2.743,0 4.429,-1.083 5.359,-1.99 0.618,-0.579 1.101,-1.284 1.414,-2.065 L 48,20.216 Z"
         id="path1" /><path
         fill="#2395ec"
         d="M 8,22 H 5 C 4.448,22 4,21.552 4,21 v -3 c 0,-0.552 0.448,-1 1,-1 h 3 c 0.552,0 1,0.448 1,1 v 3 c 0,0.552 -0.448,1 -1,1 z"
         id="path2" /><path
         fill="#2395ec"
         d="m 14,22 h -3 c -0.552,0 -1,-0.448 -1,-1 v -3 c 0,-0.552 0.448,-1 1,-1 h 3 c 0.552,0 1,0.448 1,1 v 3 c 0,0.552 -0.448,1 -1,1 z"
         id="path3" /><path
         fill="#2395ec"
         d="m 20,22 h -3 c -0.552,0 -1,-0.448 -1,-1 v -3 c 0,-0.552 0.448,-1 1,-1 h 3 c 0.552,0 1,0.448 1,1 v 3 c 0,0.552 -0.448,1 -1,1 z"
         id="path4" /><path
         fill="#2395ec"
         d="m 26,22 h -3 c -0.552,0 -1,-0.448 -1,-1 v -3 c 0,-0.552 0.448,-1 1,-1 h 3 c 0.552,0 1,0.448 1,1 v 3 c 0,0.552 -0.448,1 -1,1 z"
         id="path5" /><path
         fill="#2395ec"
         d="m 14,16 h -3 c -0.552,0 -1,-0.448 -1,-1 v -3 c 0,-0.552 0.448,-1 1,-1 h 3 c 0.552,0 1,0.448 1,1 v 3 c 0,0.552 -0.448,1 -1,1 z"
         id="path6" /><path
         fill="#2395ec"
         d="m 20,16 h -3 c -0.552,0 -1,-0.448 -1,-1 v -3 c 0,-0.552 0.448,-1 1,-1 h 3 c 0.552,0 1,0.448 1,1 v 3 c 0,0.552 -0.448,1 -1,1 z"
         id="path7" /><path
         fill="#2395ec"
         d="m 26,16 h -3 c -0.552,0 -1,-0.448 -1,-1 v -3 c 0,-0.552 0.448,-1 1,-1 h 3 c 0.552,0 1,0.448 1,1 v 3 c 0,0.552 -0.448,1 -1,1 z"
         id="path8" /><path
         fill="#2395ec"
         d="M 26,10 H 23 C 22.448,10 22,9.552 22,9 V 6 c 0,-0.552 0.448,-1 1,-1 h 3 c 0.552,0 1,0.448 1,1 v 3 c 0,0.552 -0.448,1 -1,1 z"
         id="path9" /><path
         fill="#2395ec"
         d="m 32,22 h -3 c -0.552,0 -1,-0.448 -1,-1 v -3 c 0,-0.552 0.448,-1 1,-1 h 3 c 0.552,0 1,0.448 1,1 v 3 c 0,0.552 -0.448,1 -1,1 z"
         id="path10" /></g><g
       id="g2"
       transform="matrix(0.38339995,0,0,0.38339995,300.4905,252.7389)"><path
         style="fill:#ffd155"
         d="M 493.268,479.225 H 18.732 C 8.387,479.225 0,470.838 0,460.493 v -91.372 c 0,-10.345 8.387,-18.732 18.732,-18.732 h 474.537 c 10.345,0 18.732,8.387 18.732,18.732 v 91.372 c -10e-4,10.345 -8.388,18.732 -18.733,18.732 z"
         id="path1-0" /><path
         style="fill:#ffc72d"
         d="M 493.268,350.389 H 256 v 128.835 h 237.268 c 10.345,0 18.732,-8.387 18.732,-18.732 V 369.12 c 0,-10.344 -8.387,-18.731 -18.732,-18.731 z"
         id="path2-9" /><path
         style="fill:#ffda79"
         d="M 512,387.852 H 0 V 51.507 C 0,41.162 8.387,32.775 18.732,32.775 h 161.02 c 7.864,0 14.89,4.913 17.592,12.298 l 30.92,84.529 h 265.005 c 10.345,0 18.732,8.387 18.732,18.732 v 239.518 z"
         id="path3-4" /><g
         id="g5">
	<path
   style="fill:#ffd155"
   d="m 512,148.334 c 0,-10.345 -8.387,-18.732 -18.732,-18.732 H 256 v 258.25 h 256 z"
   id="path4-8" />
	<path
   style="fill:#ffd155"
   d="M 338.875,277.46 H 197.727 c -10.345,0 -18.732,-8.387 -18.732,-18.732 0,-10.345 8.387,-18.732 18.732,-18.732 h 141.148 c 10.345,0 18.732,8.387 18.732,18.732 0,10.345 -8.387,18.732 -18.732,18.732 z"
   id="path5-8" />
</g><path
         style="fill:#ffc72d"
         d="M 338.875,239.997 H 256 v 37.463 h 82.875 c 10.345,0 18.732,-8.387 18.732,-18.732 0,-10.344 -8.387,-18.731 -18.732,-18.731 z"
         id="path6-2" /></g></g></svg>
